<?xml version="1.0" encoding="UTF-8" standalone="no"?>
<!DOCTYPE svg PUBLIC "-//W3C//DTD SVG 1.1//EN" "http://www.w3.org/Graphics/SVG/1.1/DTD/svg11.dtd">
<svg width="100%" height="100%" viewBox="0 0 384 64" version="1.1" xmlns="http://www.w3.org/2000/svg" xmlns:xlink="http://www.w3.org/1999/xlink" xml:space="preserve" xmlns:serif="http://www.serif.com/" style="fill-rule:evenodd;clip-rule:evenodd;stroke-linejoin:round;stroke-miterlimit:2;">
    <g transform="matrix(1,0,0,1,-576.064,-281.628)">
        <path d="M639.261,281.628L576.064,281.628L576.064,301.482C576.567,312.737 576.687,324.003 576.064,335.293L576.064,344.825L639.261,344.825L639.261,281.628Z" style="fill:rgb(248,140,46);"/>
        <path d="M584.488,344.826C583.169,343.931 581.933,342.891 580.78,341.705C578.942,339.815 577.37,337.66 576.064,335.242L576.064,301.527C576.145,301.398 576.244,301.217 576.327,301.089C578.991,296.96 582.975,294.021 588.28,292.272C591.771,291.121 595.241,290.732 598.691,291.103C602.142,291.475 605.177,292.641 607.797,294.602C610.418,296.563 612.28,299.219 613.385,302.57C615.157,307.945 614.351,312.893 610.966,317.415C607.58,321.936 602.34,325.289 595.243,327.474L584.284,330.856C586.479,334.93 589.271,337.706 592.66,339.181C596.048,340.656 599.907,340.681 604.235,339.254C609.889,337.389 614.643,333.732 618.496,328.282L625.176,332.697C621.487,338.046 617.112,342.089 612.05,344.826L584.488,344.826ZM592.757,319.935C597.434,318.393 600.869,316.371 603.063,313.867C605.256,311.364 605.823,308.507 604.764,305.296C603.82,302.434 602.066,300.574 599.5,299.718C596.934,298.861 594.221,298.904 591.359,299.848C588.147,300.907 585.672,302.787 583.931,305.489C582.191,308.192 581.164,311.181 580.851,314.457C580.538,317.734 580.737,320.803 581.449,323.664L592.757,319.935Z" style="fill:white;"/>
        <g transform="matrix(2.99853,0,0,0.860532,-1293.56,45.6948)">
            <path d="M654.425,325.268C653.676,325.268 653.033,324.737 652.494,323.675C651.956,322.613 651.541,321.106 651.251,319.152C650.96,317.199 650.815,314.885 650.815,312.211C650.815,309.603 650.96,307.314 651.251,305.344C651.541,303.375 651.951,301.84 652.48,300.739C653.009,299.639 653.63,299.088 654.344,299.088C654.824,299.088 655.272,299.355 655.687,299.889C656.102,300.423 656.466,301.223 656.777,302.291C657.088,303.358 657.33,304.698 657.504,306.31C657.677,307.922 657.764,309.807 657.764,311.964L657.764,313.895L651.62,313.895L651.62,309.537L655.865,309.537C655.865,308.525 655.802,307.628 655.675,306.847C655.549,306.065 655.374,305.452 655.152,305.006C654.929,304.56 654.671,304.338 654.377,304.338C654.071,304.338 653.8,304.582 653.565,305.072C653.33,305.562 653.146,306.217 653.013,307.036C652.88,307.856 652.812,308.767 652.809,309.768L652.809,313.911C652.809,315.166 652.876,316.25 653.011,317.163C653.145,318.077 653.335,318.781 653.581,319.276C653.828,319.771 654.12,320.019 654.458,320.019C654.682,320.019 654.887,319.909 655.074,319.689C655.26,319.469 655.419,319.139 655.552,318.698C655.685,318.258 655.786,317.719 655.855,317.081L657.722,317.51C657.627,319.073 657.433,320.434 657.141,321.595C656.849,322.756 656.473,323.659 656.014,324.302C655.554,324.946 655.025,325.268 654.425,325.268Z" style="fill:white;fill-rule:nonzero;"/>
            <path d="M660.165,310.115L660.165,324.773L658.147,324.773L658.147,299.419L660.071,299.419L660.071,303.892L660.156,303.892C660.317,302.417 660.587,301.248 660.966,300.384C661.345,299.52 661.805,299.088 662.345,299.088C662.85,299.088 663.29,299.474 663.666,300.244C664.042,301.014 664.334,302.112 664.543,303.537C664.751,304.962 664.855,306.659 664.855,308.629L664.855,324.773L662.837,324.773L662.837,309.884C662.84,308.332 662.727,307.119 662.496,306.244C662.266,305.369 661.948,304.932 661.544,304.932C661.272,304.932 661.033,305.135 660.826,305.543C660.619,305.95 660.458,306.541 660.343,307.317C660.228,308.093 660.169,309.025 660.165,310.115Z" style="fill:white;fill-rule:nonzero;"/>
            <path d="M668.824,325.268C668.076,325.268 667.433,324.737 666.894,323.675C666.356,322.613 665.941,321.106 665.651,319.152C665.36,317.199 665.215,314.885 665.215,312.211C665.215,309.603 665.36,307.314 665.651,305.344C665.941,303.375 666.351,301.84 666.88,300.739C667.409,299.639 668.03,299.088 668.744,299.088C669.224,299.088 669.672,299.355 670.087,299.889C670.502,300.423 670.865,301.223 671.176,302.291C671.488,303.358 671.73,304.698 671.904,306.31C672.077,307.922 672.164,309.807 672.164,311.964L672.164,313.895L666.02,313.895L666.02,309.537L670.265,309.537C670.265,308.525 670.201,307.628 670.075,306.847C669.949,306.065 669.774,305.452 669.552,305.006C669.329,304.56 669.071,304.338 668.777,304.338C668.471,304.338 668.2,304.582 667.965,305.072C667.729,305.562 667.545,306.217 667.413,307.036C667.28,307.856 667.212,308.767 667.209,309.768L667.209,313.911C667.209,315.166 667.276,316.25 667.41,317.163C667.545,318.077 667.735,318.781 667.981,319.276C668.228,319.771 668.52,320.019 668.858,320.019C669.082,320.019 669.287,319.909 669.473,319.689C669.66,319.469 669.819,319.139 669.952,318.698C670.085,318.258 670.186,317.719 670.255,317.081L672.122,317.51C672.027,319.073 671.833,320.434 671.541,321.595C671.249,322.756 670.873,323.659 670.414,324.302C669.954,324.946 669.424,325.268 668.824,325.268Z" style="fill:white;fill-rule:nonzero;"/>
            <path d="M672.547,324.773L672.547,299.419L674.504,299.419L674.504,303.842L674.58,303.842C674.712,302.269 674.935,301.077 675.247,300.269C675.56,299.46 675.92,299.055 676.328,299.055C676.429,299.055 676.538,299.077 676.654,299.121C676.771,299.165 676.874,299.226 676.962,299.303L676.962,305.543C676.868,305.443 676.737,305.355 676.569,305.278C676.402,305.201 676.249,305.163 676.11,305.163C675.813,305.163 675.548,305.386 675.316,305.831C675.084,306.277 674.901,306.896 674.767,307.688C674.632,308.481 674.565,309.394 674.565,310.429L674.565,324.773L672.547,324.773Z" style="fill:white;fill-rule:nonzero;"/>
            <path d="M680.003,334.809C679.349,334.809 678.79,334.498 678.324,333.876C677.858,333.255 677.488,332.41 677.213,331.343C676.938,330.275 676.76,329.076 676.678,327.744L678.544,326.869C678.601,327.375 678.691,327.849 678.814,328.289C678.937,328.729 679.101,329.084 679.304,329.353C679.508,329.623 679.757,329.758 680.05,329.758C680.489,329.758 680.852,329.386 681.138,328.644C681.423,327.901 681.566,326.66 681.566,324.921L681.566,320.283L681.481,320.283C681.393,320.987 681.26,321.653 681.083,322.28C680.906,322.908 680.679,323.419 680.401,323.815C680.123,324.212 679.791,324.41 679.406,324.41C678.86,324.41 678.363,323.967 677.916,323.081C677.469,322.195 677.114,320.836 676.85,319.004C676.587,317.171 676.455,314.852 676.455,312.046C676.455,309.174 676.589,306.775 676.858,304.849C677.126,302.923 677.484,301.482 677.931,300.524C678.377,299.567 678.868,299.088 679.401,299.088C679.809,299.088 680.15,299.328 680.425,299.806C680.699,300.285 680.921,300.879 681.09,301.589C681.259,302.299 681.389,302.995 681.481,303.677L681.557,303.677L681.557,299.419L683.561,299.419L683.561,325.02C683.561,327.177 683.409,328.982 683.106,330.435C682.803,331.887 682.383,332.979 681.848,333.711C681.313,334.443 680.698,334.809 680.003,334.809ZM680.046,319.128C680.371,319.128 680.646,318.844 680.872,318.277C681.098,317.711 681.272,316.896 681.393,315.834C681.515,314.773 681.576,313.499 681.576,312.013C681.576,310.528 681.516,309.237 681.396,308.142C681.276,307.047 681.102,306.197 680.875,305.592C680.647,304.987 680.371,304.684 680.046,304.684C679.714,304.684 679.435,304.995 679.207,305.617C678.98,306.239 678.808,307.1 678.691,308.2C678.574,309.301 678.516,310.572 678.516,312.013C678.516,313.477 678.575,314.74 678.693,315.801C678.812,316.863 678.984,317.683 679.21,318.261C679.435,318.839 679.714,319.128 680.046,319.128Z" style="fill:white;fill-rule:nonzero;"/>
            <path d="M685.483,334.281C685.228,334.281 684.988,334.212 684.766,334.074C684.543,333.937 684.359,333.763 684.214,333.554L684.669,328.305C684.905,328.558 685.119,328.696 685.31,328.718C685.502,328.74 685.667,328.586 685.808,328.256C685.948,327.926 686.063,327.364 686.151,326.572L686.27,325.499L683.66,299.419L685.782,299.419L687.288,318.038L687.364,318.038L688.885,299.419L691.021,299.419L688.193,327.513C688.057,328.878 687.873,330.069 687.641,331.087C687.409,332.105 687.116,332.891 686.762,333.447C686.409,334.003 685.982,334.281 685.483,334.281Z" style="fill:white;fill-rule:nonzero;"/>
            <path d="M697.174,306.648L695.327,307.045C695.295,306.494 695.227,305.996 695.123,305.551C695.019,305.105 694.882,304.747 694.713,304.478C694.544,304.208 694.343,304.073 694.109,304.073C693.797,304.073 693.533,304.302 693.318,304.758C693.103,305.215 692.996,305.823 692.996,306.582C692.996,307.188 693.065,307.699 693.204,308.118C693.343,308.536 693.582,308.871 693.92,309.124L695.237,310.049C695.944,310.555 696.471,311.369 696.819,312.492C697.166,313.614 697.34,315.089 697.34,316.916C697.34,318.577 697.2,320.035 696.921,321.29C696.641,322.544 696.259,323.521 695.774,324.22C695.29,324.919 694.731,325.268 694.1,325.268C693.136,325.268 692.37,324.567 691.8,323.163C691.23,321.76 690.896,319.848 690.798,317.427L692.783,317.064C692.843,318.088 692.988,318.866 693.219,319.4C693.449,319.934 693.744,320.2 694.104,320.2C694.458,320.2 694.743,319.961 694.96,319.482C695.176,319.004 695.286,318.385 695.289,317.625C695.286,316.987 695.208,316.462 695.057,316.049C694.905,315.636 694.671,315.32 694.356,315.1L693.095,314.225C692.385,313.73 691.857,312.872 691.511,311.65C691.165,310.429 690.992,308.871 690.992,306.979C690.992,305.35 691.119,303.947 691.373,302.769C691.628,301.592 691.986,300.684 692.449,300.046C692.911,299.408 693.454,299.088 694.076,299.088C694.995,299.088 695.719,299.765 696.248,301.119C696.777,302.472 697.086,304.316 697.174,306.648Z" style="fill:white;fill-rule:nonzero;"/>
            <path d="M699.116,324.773L697.136,299.419L699.177,299.419L700.305,316.453L700.371,316.453L701.546,299.419L703.55,299.419L704.744,316.354L704.805,316.354L705.914,299.419L707.951,299.419L705.975,324.773L703.839,324.773L702.588,308.827L702.498,308.827L701.248,324.773L699.116,324.773Z" style="fill:white;fill-rule:nonzero;"/>
            <path d="M708.087,324.773L708.087,299.419L710.105,299.419L710.105,324.773L708.087,324.773ZM709.101,296.15C708.801,296.15 708.545,295.801 708.331,295.102C708.118,294.403 708.012,293.564 708.012,292.585C708.012,291.616 708.118,290.783 708.331,290.084C708.545,289.385 708.801,289.036 709.101,289.036C709.401,289.036 709.658,289.385 709.871,290.084C710.084,290.783 710.191,291.616 710.191,292.585C710.191,293.564 710.084,294.403 709.871,295.102C709.658,295.801 709.401,296.15 709.101,296.15Z" style="fill:white;fill-rule:nonzero;"/>
            <path d="M714.653,299.419L714.653,304.701L710.271,304.701L710.271,299.419L714.653,299.419ZM711.266,293.344L713.284,293.344L713.284,316.982C713.284,317.631 713.312,318.134 713.369,318.492C713.426,318.85 713.505,319.1 713.608,319.243C713.711,319.386 713.83,319.458 713.966,319.458C714.06,319.458 714.155,319.427 714.25,319.367C714.345,319.306 714.417,319.26 714.468,319.227L714.785,324.459C714.684,324.569 714.542,324.699 714.359,324.847C714.176,324.996 713.953,325.086 713.691,325.119C713.205,325.186 712.779,324.96 712.414,324.443C712.05,323.925 711.766,323.122 711.564,322.033C711.362,320.943 711.262,319.568 711.266,317.906L711.266,293.344Z" style="fill:white;fill-rule:nonzero;"/>
            <path d="M718.243,325.268C717.497,325.268 716.857,324.715 716.322,323.609C715.787,322.503 715.376,320.965 715.09,318.995C714.804,317.026 714.661,314.759 714.661,312.195C714.661,309.598 714.806,307.317 715.095,305.353C715.384,303.388 715.795,301.853 716.329,300.747C716.863,299.641 717.497,299.088 718.233,299.088C718.868,299.088 719.424,299.49 719.901,300.293C720.378,301.097 720.755,302.225 721.033,303.677C721.311,305.13 721.464,306.836 721.492,308.794L719.588,308.794C719.534,307.529 719.393,306.508 719.164,305.732C718.935,304.957 718.636,304.569 718.266,304.569C717.954,304.569 717.681,304.863 717.449,305.452C717.217,306.04 717.036,306.896 716.907,308.019C716.777,309.141 716.713,310.5 716.713,312.096C716.713,313.713 716.777,315.089 716.905,316.222C717.032,317.356 717.213,318.22 717.447,318.814C717.681,319.408 717.954,319.705 718.266,319.705C718.497,319.705 718.705,319.54 718.889,319.21C719.074,318.88 719.227,318.398 719.349,317.766C719.471,317.133 719.55,316.371 719.588,315.48L721.492,315.48C721.461,317.416 721.31,319.119 721.04,320.588C720.77,322.057 720.398,323.205 719.924,324.03C719.451,324.855 718.89,325.268 718.243,325.268Z" style="fill:white;fill-rule:nonzero;"/>
            <path d="M723.875,310.115L723.875,324.773L721.857,324.773L721.857,290.967L723.818,290.967L723.818,303.892L723.903,303.892C724.067,302.395 724.333,301.221 724.699,300.368C725.065,299.515 725.525,299.088 726.078,299.088C726.583,299.088 727.024,299.471 727.402,300.236C727.779,301 728.073,302.095 728.283,303.52C728.493,304.946 728.596,306.648 728.593,308.629L728.593,324.773L726.575,324.773L726.575,309.884C726.578,308.321 726.465,307.105 726.236,306.236C726.007,305.366 725.687,304.932 725.277,304.932C725.002,304.932 724.76,305.135 724.55,305.543C724.34,305.95 724.176,306.541 724.057,307.317C723.939,308.093 723.878,309.025 723.875,310.115Z" style="fill:white;fill-rule:nonzero;"/>
            <path d="M729.736,325.052C729.532,325.052 729.358,324.8 729.214,324.295C729.069,323.791 728.997,323.185 728.997,322.477C728.997,321.776 729.069,321.175 729.214,320.674C729.358,320.174 729.532,319.923 729.736,319.923C729.933,319.923 730.105,320.174 730.253,320.674C730.401,321.175 730.475,321.776 730.475,322.477C730.475,322.949 730.44,323.38 730.372,323.77C730.303,324.159 730.213,324.471 730.102,324.703C729.991,324.936 729.869,325.052 729.736,325.052Z" style="fill:white;fill-rule:nonzero;"/>
            <path d="M733.079,325.095C732.595,325.095 732.179,324.735 731.831,324.016C731.483,323.298 731.216,322.298 731.03,321.018C730.844,319.737 730.751,318.264 730.751,316.597C730.751,314.909 730.845,313.427 731.033,312.15C731.221,310.873 731.488,309.875 731.835,309.156C732.182,308.437 732.595,308.078 733.073,308.078C733.486,308.078 733.847,308.339 734.157,308.861C734.467,309.383 734.712,310.117 734.893,311.061C735.074,312.005 735.173,313.114 735.192,314.387L733.954,314.387C733.919,313.564 733.827,312.901 733.678,312.397C733.529,311.892 733.335,311.64 733.095,311.64C732.891,311.64 732.714,311.831 732.564,312.214C732.413,312.597 732.295,313.153 732.211,313.883C732.127,314.612 732.085,315.496 732.085,316.533C732.085,317.584 732.126,318.478 732.209,319.215C732.293,319.952 732.41,320.513 732.562,320.9C732.714,321.286 732.891,321.479 733.095,321.479C733.245,321.479 733.38,321.372 733.5,321.157C733.62,320.942 733.719,320.63 733.798,320.218C733.877,319.807 733.929,319.312 733.954,318.732L735.192,318.732C735.171,319.991 735.073,321.098 734.898,322.053C734.722,323.008 734.48,323.754 734.172,324.29C733.864,324.826 733.5,325.095 733.079,325.095Z" style="fill:white;fill-rule:nonzero;"/>
            <path d="M737.565,325.095C737.087,325.095 736.674,324.739 736.326,324.027C735.978,323.315 735.71,322.321 735.521,321.044C735.332,319.768 735.237,318.285 735.237,316.597C735.237,314.895 735.332,313.405 735.521,312.128C735.71,310.851 735.978,309.857 736.326,309.146C736.674,308.434 737.087,308.078 737.565,308.078C738.044,308.078 738.457,308.434 738.805,309.146C739.153,309.857 739.421,310.851 739.61,312.128C739.799,313.405 739.893,314.895 739.893,316.597C739.893,318.285 739.799,319.768 739.61,321.044C739.421,322.321 739.153,323.315 738.805,324.027C738.457,324.739 738.044,325.095 737.565,325.095ZM737.571,321.554C737.789,321.554 737.971,321.338 738.116,320.905C738.262,320.472 738.373,319.88 738.447,319.129C738.522,318.378 738.56,317.523 738.56,316.565C738.56,315.606 738.522,314.752 738.447,314.001C738.373,313.25 738.262,312.656 738.116,312.219C737.971,311.783 737.789,311.565 737.571,311.565C737.352,311.565 737.168,311.783 737.019,312.219C736.87,312.656 736.758,313.25 736.683,314.001C736.608,314.752 736.571,315.606 736.571,316.565C736.571,317.523 736.608,318.378 736.683,319.129C736.758,319.88 736.87,320.472 737.019,320.905C737.168,321.338 737.352,321.554 737.571,321.554Z" style="fill:white;fill-rule:nonzero;"/>
            <path d="M740.909,325.052C740.706,325.052 740.532,324.8 740.387,324.295C740.242,323.791 740.17,323.185 740.17,322.477C740.17,321.776 740.242,321.175 740.387,320.674C740.532,320.174 740.706,319.923 740.909,319.923C741.106,319.923 741.278,320.174 741.426,320.674C741.574,321.175 741.648,321.776 741.648,322.477C741.648,322.949 741.613,323.38 741.545,323.77C741.476,324.159 741.386,324.471 741.275,324.703C741.164,324.936 741.042,325.052 740.909,325.052Z" style="fill:white;fill-rule:nonzero;"/>
            <path d="M745.148,317.756L745.148,308.293L746.46,308.293L746.46,324.773L745.201,324.773L745.201,321.779L745.152,321.779C745.045,322.745 744.868,323.521 744.62,324.108C744.373,324.694 744.072,324.987 743.717,324.987C743.401,324.987 743.122,324.737 742.882,324.236C742.642,323.736 742.455,323.024 742.32,322.101C742.186,321.179 742.118,320.073 742.116,318.786L742.116,308.293L743.427,308.293L743.427,317.97C743.429,318.943 743.504,319.712 743.652,320.277C743.8,320.842 743.998,321.125 744.246,321.125C744.404,321.125 744.552,320.998 744.69,320.744C744.827,320.49 744.939,320.113 745.024,319.612C745.109,319.111 745.151,318.493 745.148,317.756Z" style="fill:white;fill-rule:nonzero;"/>
            <path d="M748.089,320.03L748.092,314.548L748.283,314.548L749.798,308.293L751.303,308.293L749.268,316.576L748.957,316.576L748.089,320.03ZM746.9,324.773L746.9,302.799L748.212,302.799L748.212,324.773L746.9,324.773ZM749.856,324.773L748.464,317.595L749.339,314.365L751.393,324.773L749.856,324.773Z" style="fill:white;fill-rule:nonzero;"/>
        </g>
    </g>
</svg>
